<mxfile host="Electron" agent="Mozilla/5.0 (Macintosh; Intel Mac OS X 10_15_7) AppleWebKit/537.36 (KHTML, like Gecko) draw.io/26.2.15 Chrome/134.0.6998.205 Electron/35.2.1 Safari/537.36" version="26.2.15">
  <diagram name="Page-1" id="9361dd3d-8414-5efd-6122-117bd74ce7a7">
    <mxGraphModel dx="2183" dy="652" grid="1" gridSize="10" guides="1" tooltips="1" connect="1" arrows="1" fold="1" page="0" pageScale="1.5" pageWidth="826" pageHeight="1169" background="none" math="0" shadow="0">
      <root>
        <mxCell id="0" />
        <mxCell id="1" parent="0" />
        <mxCell id="b-5YkS1wpCGtqvK3t734-9" value="" style="edgeStyle=elbowEdgeStyle;elbow=horizontal;endArrow=none;dashed=1;" parent="1" target="b-5YkS1wpCGtqvK3t734-8" edge="1">
          <mxGeometry x="-768.6" y="319" width="100" height="100" as="geometry">
            <mxPoint x="-795" y="118" as="sourcePoint" />
            <mxPoint x="-795" y="820" as="targetPoint" />
          </mxGeometry>
        </mxCell>
        <mxCell id="2nvIdZgUBEcnC0BVwxi8-121" value="" style="edgeStyle=elbowEdgeStyle;elbow=horizontal;endArrow=none;dashed=1;startArrow=none;exitX=0.5;exitY=1;exitDx=0;exitDy=0;entryX=0.5;entryY=0;entryDx=0;entryDy=0;" parent="1" source="b-5YkS1wpCGtqvK3t734-1" target="b-5YkS1wpCGtqvK3t734-10" edge="1">
          <mxGeometry x="-133.75000000000003" y="311" width="100" height="100" as="geometry">
            <mxPoint x="-159" y="560" as="sourcePoint" />
            <mxPoint x="-159" y="800" as="targetPoint" />
          </mxGeometry>
        </mxCell>
        <mxCell id="b-5YkS1wpCGtqvK3t734-1" value="" style="fillColor=#CC4125;strokeColor=#660000;opacity=60;" parent="1" vertex="1">
          <mxGeometry x="-163.32" y="140" width="10" height="490" as="geometry" />
        </mxCell>
        <mxCell id="2nvIdZgUBEcnC0BVwxi8-144" value="" style="edgeStyle=orthogonalEdgeStyle;elbow=horizontal;endArrow=none;dashed=1;entryX=0.5;entryY=0;entryDx=0;entryDy=0;" parent="1" target="2nvIdZgUBEcnC0BVwxi8-143" edge="1">
          <mxGeometry x="1956.6599999999999" y="323.5" width="100" height="100" as="geometry">
            <mxPoint x="1942" y="118" as="sourcePoint" />
            <mxPoint x="1942" y="1020" as="targetPoint" />
            <Array as="points">
              <mxPoint x="1942" y="1193" />
            </Array>
          </mxGeometry>
        </mxCell>
        <mxCell id="xnJBq9EGyrnx8lSvGc01-16" value="" style="edgeStyle=elbowEdgeStyle;elbow=horizontal;endArrow=none;dashed=1" parent="1" target="xnJBq9EGyrnx8lSvGc01-15" edge="1">
          <mxGeometry x="-10.999999999999972" y="310" width="100" height="100" as="geometry">
            <mxPoint x="-38" y="110" as="sourcePoint" />
            <mxPoint x="-38" y="760" as="targetPoint" />
          </mxGeometry>
        </mxCell>
        <mxCell id="2nvIdZgUBEcnC0BVwxi8-91" value="" style="fillColor=#CC4125;strokeColor=#660000" parent="1" vertex="1">
          <mxGeometry x="-43" y="150" width="10" height="480" as="geometry" />
        </mxCell>
        <mxCell id="2nvIdZgUBEcnC0BVwxi8-92" value="[mutation]  site_createGameSession(gameId: UUID!, walletId: UUID!): GameSessionResponse!" style="edgeStyle=none;verticalLabelPosition=top;verticalAlign=bottom;labelPosition=left;align=right" parent="1" edge="1">
          <mxGeometry x="-4" y="-8" width="100" height="100" as="geometry">
            <mxPoint x="-774" y="142" as="sourcePoint" />
            <mxPoint x="-174" y="142" as="targetPoint" />
            <mxPoint x="197" as="offset" />
          </mxGeometry>
        </mxCell>
        <mxCell id="2nvIdZgUBEcnC0BVwxi8-93" value="casino-transaction-serive" style="shadow=1;fillColor=#A2C4C9;strokeColor=none" parent="1" vertex="1">
          <mxGeometry x="-107.75" y="60" width="140.5" height="50" as="geometry" />
        </mxCell>
        <mxCell id="2nvIdZgUBEcnC0BVwxi8-94" value="" style="edgeStyle=elbowEdgeStyle;elbow=horizontal;endArrow=none;dashed=1;startArrow=none;" parent="1" source="xnJBq9EGyrnx8lSvGc01-15" edge="1">
          <mxGeometry x="-10.999999999999972" y="490" width="100" height="100" as="geometry">
            <mxPoint x="-38" y="480" as="sourcePoint" />
            <mxPoint x="-38" y="1030" as="targetPoint" />
          </mxGeometry>
        </mxCell>
        <mxCell id="2nvIdZgUBEcnC0BVwxi8-95" value="Game Launch" style="rounded=1;fontStyle=1;fillColor=#FFF2CC;strokeColor=none;fontSize=17;" parent="1" vertex="1">
          <mxGeometry x="-591" y="10" width="340" height="30" as="geometry" />
        </mxCell>
        <mxCell id="2nvIdZgUBEcnC0BVwxi8-96" value="" style="edgeStyle=elbowEdgeStyle;elbow=vertical;dashed=1;verticalLabelPosition=bottom;verticalAlign=top;" parent="1" edge="1">
          <mxGeometry x="-535" y="547.6679320987653" width="100" height="100" as="geometry">
            <mxPoint x="-170" y="629.54" as="sourcePoint" />
            <mxPoint x="-780" y="629.54" as="targetPoint" />
            <Array as="points" />
          </mxGeometry>
        </mxCell>
        <mxCell id="2nvIdZgUBEcnC0BVwxi8-97" value="&lt;div&gt;&amp;nbsp;{ gameLaunchUrl:&amp;nbsp;&lt;/div&gt;&lt;div&gt;- &lt;span style=&quot;background-color: rgb(204, 255, 204);&quot;&gt;REAL&lt;/span&gt;:&amp;nbsp; &amp;nbsp;https://{hostname}/&lt;span style=&quot;background-color: rgb(204, 255, 204);&quot;&gt;ui/v1/game/{gameId}/session/{sessionId}/launcher&lt;/span&gt;&lt;/div&gt;&lt;div&gt;- &lt;span style=&quot;background-color: rgb(255, 255, 204);&quot;&gt;DEMO&lt;/span&gt;: https://{hostname}/&lt;span style=&quot;background-color: rgb(255, 255, 204);&quot;&gt;ui/v1/game/{gameId}/demo&lt;/span&gt;&lt;/div&gt;&lt;div&gt;&amp;nbsp; or&lt;/div&gt;&lt;div&gt;- &lt;span style=&quot;background-color: rgb(204, 255, 204);&quot;&gt;REAL &lt;/span&gt;in&amp;nbsp;&lt;span style=&quot;background-color: rgb(255, 204, 255);&quot;&gt;IFRAME&lt;/span&gt;: https://{hostname}&lt;span style=&quot;background-color: rgb(255, 204, 255);&quot;&gt;/ui/v1/iframe/launcher.html&lt;/span&gt;?gameSessionId={sessionId}&amp;amp;token={authToken}&amp;amp;&lt;/div&gt;&lt;div&gt;&lt;span style=&quot;white-space: pre;&quot;&gt;&#x9;&lt;/span&gt;launchUrl=https://{hostname}&lt;span style=&quot;background-color: rgb(204, 255, 204);&quot;&gt;/ui/v1/game/{gameId}/session/{sessionId}/launcher&lt;/span&gt;&lt;/div&gt;&lt;div&gt;}&lt;/div&gt;&lt;div&gt;&lt;br&gt;&lt;/div&gt;" style="edgeLabel;html=1;align=left;verticalAlign=middle;resizable=0;points=[];fontStyle=0;fontSize=10;" parent="2nvIdZgUBEcnC0BVwxi8-96" vertex="1" connectable="0">
          <mxGeometry relative="1" as="geometry">
            <mxPoint x="-313" y="-59" as="offset" />
          </mxGeometry>
        </mxCell>
        <mxCell id="2nvIdZgUBEcnC0BVwxi8-98" value="Create and save GameSession" style="rounded=1;fontStyle=1;fillColor=#FFD966;strokeColor=none" parent="1" vertex="1">
          <mxGeometry x="-150.97" y="570" width="224.93" height="30" as="geometry" />
        </mxCell>
        <mxCell id="2nvIdZgUBEcnC0BVwxi8-99" value="casino-service" style="shadow=1;fillColor=#A2C4C9;strokeColor=none" parent="1" vertex="1">
          <mxGeometry x="238" y="60" width="90" height="50" as="geometry" />
        </mxCell>
        <mxCell id="2nvIdZgUBEcnC0BVwxi8-100" value="wallet-service" style="shadow=1;fillColor=#A2C4C9;strokeColor=none" parent="1" vertex="1">
          <mxGeometry x="336" y="60" width="90" height="50" as="geometry" />
        </mxCell>
        <mxCell id="2nvIdZgUBEcnC0BVwxi8-101" value="game-provider-integration-service-alea" style="shadow=1;fillColor=#A2C4C9;strokeColor=none" parent="1" vertex="1">
          <mxGeometry x="1031" y="64" width="250" height="50" as="geometry" />
        </mxCell>
        <mxCell id="2nvIdZgUBEcnC0BVwxi8-102" value="" style="edgeStyle=elbowEdgeStyle;elbow=horizontal;endArrow=none;dashed=1;entryX=0.5;entryY=0;entryDx=0;entryDy=0;" parent="1" target="xnJBq9EGyrnx8lSvGc01-12" edge="1">
          <mxGeometry x="304.76" y="313" width="100" height="100" as="geometry">
            <mxPoint x="279.5" y="120" as="sourcePoint" />
            <mxPoint x="280" y="950" as="targetPoint" />
            <Array as="points">
              <mxPoint x="280" y="550" />
            </Array>
          </mxGeometry>
        </mxCell>
        <mxCell id="2nvIdZgUBEcnC0BVwxi8-103" value="" style="edgeStyle=none;verticalLabelPosition=top;verticalAlign=bottom;endArrow=classic;startArrow=none;startFill=0;endFill=1;" parent="1" edge="1">
          <mxGeometry x="283.04" y="167.4988734567901" width="100" height="100" as="geometry">
            <mxPoint x="-30" y="380" as="sourcePoint" />
            <mxPoint x="470" y="380" as="targetPoint" />
          </mxGeometry>
        </mxCell>
        <mxCell id="2nvIdZgUBEcnC0BVwxi8-104" value="[GET] /api/v1/player/{playerId}" style="edgeLabel;html=1;align=center;verticalAlign=middle;resizable=0;points=[];" parent="2nvIdZgUBEcnC0BVwxi8-103" vertex="1" connectable="0">
          <mxGeometry relative="1" as="geometry">
            <mxPoint x="3" y="-10" as="offset" />
          </mxGeometry>
        </mxCell>
        <mxCell id="2nvIdZgUBEcnC0BVwxi8-106" value="" style="edgeStyle=elbowEdgeStyle;elbow=vertical;dashed=1;verticalLabelPosition=bottom;verticalAlign=top;" parent="1" edge="1">
          <mxGeometry x="-72.37" y="223.99793209876535" width="100" height="100" as="geometry">
            <mxPoint x="470" y="410" as="sourcePoint" />
            <mxPoint x="-30" y="410" as="targetPoint" />
            <Array as="points">
              <mxPoint x="276.87" y="409.96" />
            </Array>
          </mxGeometry>
        </mxCell>
        <mxCell id="2nvIdZgUBEcnC0BVwxi8-107" value="PlayerResponse" style="edgeLabel;html=1;align=center;verticalAlign=middle;resizable=0;points=[];" parent="2nvIdZgUBEcnC0BVwxi8-106" vertex="1" connectable="0">
          <mxGeometry relative="1" as="geometry">
            <mxPoint x="4" y="-8" as="offset" />
          </mxGeometry>
        </mxCell>
        <mxCell id="2nvIdZgUBEcnC0BVwxi8-108" value="" style="edgeStyle=elbowEdgeStyle;elbow=horizontal;endArrow=none;dashed=1;entryX=0.5;entryY=0;entryDx=0;entryDy=0;" parent="1" target="2nvIdZgUBEcnC0BVwxi8-111" edge="1">
          <mxGeometry x="404.65999999999997" y="325.5" width="100" height="100" as="geometry">
            <mxPoint x="380" y="116" as="sourcePoint" />
            <mxPoint x="380" y="306" as="targetPoint" />
          </mxGeometry>
        </mxCell>
        <mxCell id="2nvIdZgUBEcnC0BVwxi8-109" value="" style="edgeStyle=none;verticalLabelPosition=top;verticalAlign=bottom;endArrow=classic;startArrow=none;startFill=0;endFill=1;" parent="1" edge="1">
          <mxGeometry x="278.04" y="233.4988734567901" width="100" height="100" as="geometry">
            <mxPoint x="-30" y="310" as="sourcePoint" />
            <mxPoint x="370" y="310" as="targetPoint" />
          </mxGeometry>
        </mxCell>
        <mxCell id="2nvIdZgUBEcnC0BVwxi8-110" value="[GET] /api/v1/wallet/{walletId}" style="edgeLabel;html=1;align=center;verticalAlign=middle;resizable=0;points=[];" parent="2nvIdZgUBEcnC0BVwxi8-109" vertex="1" connectable="0">
          <mxGeometry relative="1" as="geometry">
            <mxPoint x="-9" y="-10" as="offset" />
          </mxGeometry>
        </mxCell>
        <mxCell id="2nvIdZgUBEcnC0BVwxi8-111" value="" style="fillColor=#CC4125;strokeColor=#660000" parent="1" vertex="1">
          <mxGeometry x="375" y="310" width="10" height="30" as="geometry" />
        </mxCell>
        <mxCell id="2nvIdZgUBEcnC0BVwxi8-112" value="" style="edgeStyle=elbowEdgeStyle;elbow=vertical;dashed=1;verticalLabelPosition=bottom;verticalAlign=top;" parent="1" edge="1">
          <mxGeometry x="-72.37" y="287.33793209876535" width="100" height="100" as="geometry">
            <mxPoint x="370" y="340" as="sourcePoint" />
            <mxPoint x="-30" y="340" as="targetPoint" />
            <Array as="points">
              <mxPoint x="175" y="340" />
            </Array>
          </mxGeometry>
        </mxCell>
        <mxCell id="2nvIdZgUBEcnC0BVwxi8-113" value="WalletResponse" style="edgeLabel;html=1;align=center;verticalAlign=middle;resizable=0;points=[];" parent="2nvIdZgUBEcnC0BVwxi8-112" vertex="1" connectable="0">
          <mxGeometry relative="1" as="geometry">
            <mxPoint x="-11" y="-8" as="offset" />
          </mxGeometry>
        </mxCell>
        <mxCell id="2nvIdZgUBEcnC0BVwxi8-114" value="Get brand settings:&#xa;- lobbyUrl" style="shape=note;align=left;strokeColor=#808080;fontColor=#666666;" parent="1" vertex="1">
          <mxGeometry x="-226.63" y="160" width="136.63" height="40" as="geometry" />
        </mxCell>
        <mxCell id="2nvIdZgUBEcnC0BVwxi8-115" value="account-service" style="shadow=1;fillColor=#A2C4C9;strokeColor=none" parent="1" vertex="1">
          <mxGeometry x="141" y="60" width="90" height="50" as="geometry" />
        </mxCell>
        <mxCell id="2nvIdZgUBEcnC0BVwxi8-116" value="" style="edgeStyle=none;verticalLabelPosition=top;verticalAlign=bottom;endArrow=classic;startArrow=none;startFill=0;endFill=1;" parent="1" edge="1">
          <mxGeometry x="281.04" y="89.49887345679011" width="100" height="100" as="geometry">
            <mxPoint x="-30" y="170" as="sourcePoint" />
            <mxPoint x="180" y="170" as="targetPoint" />
          </mxGeometry>
        </mxCell>
        <mxCell id="2nvIdZgUBEcnC0BVwxi8-117" value="[GET] /api/v1/brand/{brandId}" style="edgeLabel;html=1;align=center;verticalAlign=middle;resizable=0;points=[];" parent="2nvIdZgUBEcnC0BVwxi8-116" vertex="1" connectable="0">
          <mxGeometry relative="1" as="geometry">
            <mxPoint x="-23" y="-10" as="offset" />
          </mxGeometry>
        </mxCell>
        <mxCell id="2nvIdZgUBEcnC0BVwxi8-118" value="" style="fillColor=#CC4125;strokeColor=#660000" parent="1" vertex="1">
          <mxGeometry x="186" y="170" width="10" height="30" as="geometry" />
        </mxCell>
        <mxCell id="2nvIdZgUBEcnC0BVwxi8-119" value="" style="edgeStyle=elbowEdgeStyle;elbow=vertical;dashed=1;verticalLabelPosition=bottom;verticalAlign=top;" parent="1" edge="1">
          <mxGeometry x="-71.37" y="145.33793209876535" width="100" height="100" as="geometry">
            <mxPoint x="180" y="200" as="sourcePoint" />
            <mxPoint x="-30" y="200" as="targetPoint" />
            <Array as="points" />
          </mxGeometry>
        </mxCell>
        <mxCell id="2nvIdZgUBEcnC0BVwxi8-120" value="BrandResponse" style="edgeLabel;html=1;align=center;verticalAlign=middle;resizable=0;points=[];" parent="2nvIdZgUBEcnC0BVwxi8-119" vertex="1" connectable="0">
          <mxGeometry relative="1" as="geometry">
            <mxPoint x="-2" y="-7" as="offset" />
          </mxGeometry>
        </mxCell>
        <mxCell id="2nvIdZgUBEcnC0BVwxi8-122" style="rounded=0;orthogonalLoop=1;jettySize=auto;html=1;exitX=0;exitY=0.5;exitDx=0;exitDy=0;startArrow=none;startFill=0;endArrow=none;endFill=0;dashed=1;strokeColor=#999999;entryX=0;entryY=0;entryDx=136.63;entryDy=30;entryPerimeter=0;" parent="1" source="2nvIdZgUBEcnC0BVwxi8-123" target="2nvIdZgUBEcnC0BVwxi8-114" edge="1">
          <mxGeometry relative="1" as="geometry" />
        </mxCell>
        <mxCell id="2nvIdZgUBEcnC0BVwxi8-123" value="" style="ellipse;fillColor=none" parent="1" vertex="1">
          <mxGeometry x="-42.999999999999886" y="180.00429012345683" width="9.999999999999886" height="10" as="geometry" />
        </mxCell>
        <mxCell id="2nvIdZgUBEcnC0BVwxi8-124" value="" style="ellipse;fillColor=none" parent="1" vertex="1">
          <mxGeometry x="-42.999999999999886" y="389.5042901234568" width="9.999999999999886" height="10" as="geometry" />
        </mxCell>
        <mxCell id="2nvIdZgUBEcnC0BVwxi8-125" value="Get player settings:&#xa;- custom lobbyUrl" style="shape=note;align=left;strokeColor=#808080;fontColor=#666666;verticalAlign=middle;" parent="1" vertex="1">
          <mxGeometry x="-226.63" y="360" width="150" height="60" as="geometry" />
        </mxCell>
        <mxCell id="2nvIdZgUBEcnC0BVwxi8-126" style="rounded=0;orthogonalLoop=1;jettySize=auto;html=1;exitX=-0.111;exitY=0.716;exitDx=0;exitDy=0;startArrow=none;startFill=0;endArrow=none;endFill=0;dashed=1;strokeColor=#999999;entryX=0;entryY=0;entryDx=150;entryDy=30;entryPerimeter=0;exitPerimeter=0;" parent="1" target="2nvIdZgUBEcnC0BVwxi8-125" edge="1">
          <mxGeometry relative="1" as="geometry">
            <mxPoint x="-44.11000000000013" y="393.68000000000006" as="sourcePoint" />
            <mxPoint x="-80" y="328.88885296608885" as="targetPoint" />
          </mxGeometry>
        </mxCell>
        <mxCell id="2nvIdZgUBEcnC0BVwxi8-127" value="Get player&#39;s wallet:&#xa;- currency&#xa;- balance" style="shape=note;align=left;strokeColor=#808080;fontColor=#666666;verticalAlign=middle;" parent="1" vertex="1">
          <mxGeometry x="-226.63" y="290" width="150" height="50" as="geometry" />
        </mxCell>
        <mxCell id="2nvIdZgUBEcnC0BVwxi8-128" value="" style="ellipse;fillColor=none" parent="1" vertex="1">
          <mxGeometry x="-42.999999999999886" y="323.5042901234568" width="9.999999999999886" height="10" as="geometry" />
        </mxCell>
        <mxCell id="2nvIdZgUBEcnC0BVwxi8-129" style="rounded=0;orthogonalLoop=1;jettySize=auto;html=1;exitX=-0.058;exitY=0.405;exitDx=0;exitDy=0;startArrow=none;startFill=0;endArrow=none;endFill=0;dashed=1;strokeColor=#999999;exitPerimeter=0;entryX=0;entryY=0;entryDx=150;entryDy=30;entryPerimeter=0;" parent="1" target="2nvIdZgUBEcnC0BVwxi8-127" edge="1">
          <mxGeometry relative="1" as="geometry">
            <mxPoint x="-43.57999999999993" y="328.4" as="sourcePoint" />
            <mxPoint x="-66.63000000000011" y="269.9999999999999" as="targetPoint" />
          </mxGeometry>
        </mxCell>
        <mxCell id="2nvIdZgUBEcnC0BVwxi8-130" value="Validate Brand" style="rounded=1;fontStyle=1;fillColor=#ffe6cc;strokeColor=#d79b00;" parent="1" vertex="1">
          <mxGeometry x="-85" y="210" width="93" height="20" as="geometry" />
        </mxCell>
        <mxCell id="2nvIdZgUBEcnC0BVwxi8-131" value="Validate Player" style="rounded=1;fontStyle=1;fillColor=#ffe6cc;strokeColor=#d79b00;" parent="1" vertex="1">
          <mxGeometry x="-84.5" y="430" width="93" height="20" as="geometry" />
        </mxCell>
        <mxCell id="2nvIdZgUBEcnC0BVwxi8-132" value="Validate Wallet" style="rounded=1;fontStyle=1;fillColor=#ffe6cc;strokeColor=#d79b00;" parent="1" vertex="1">
          <mxGeometry x="-85.01" y="350" width="93" height="20" as="geometry" />
        </mxCell>
        <mxCell id="2nvIdZgUBEcnC0BVwxi8-135" value="UI" style="shadow=1;fillColor=#CCE5FF;strokeColor=none" parent="1" vertex="1">
          <mxGeometry x="-846" y="64" width="105" height="50" as="geometry" />
        </mxCell>
        <mxCell id="2nvIdZgUBEcnC0BVwxi8-136" value="" style="edgeStyle=elbowEdgeStyle;elbow=horizontal;endArrow=none;dashed=1;startArrow=none;entryX=0.5;entryY=0;entryDx=0;entryDy=0;" parent="1" source="K9UkdhgUwQVQiiIXOYEs-1" target="b-5YkS1wpCGtqvK3t734-30" edge="1">
          <mxGeometry x="-768.6" y="319" width="100" height="100" as="geometry">
            <mxPoint x="-795" y="118" as="sourcePoint" />
            <mxPoint x="-795" y="820" as="targetPoint" />
          </mxGeometry>
        </mxCell>
        <mxCell id="2nvIdZgUBEcnC0BVwxi8-137" value="" style="fillColor=#CC4125;strokeColor=#660000" parent="1" vertex="1">
          <mxGeometry x="-800.5" y="130" width="10" height="500" as="geometry" />
        </mxCell>
        <mxCell id="2nvIdZgUBEcnC0BVwxi8-138" value="1. Player selects:&#xa;    - Game&#xa;    - Wallet&#xa;2. Player clicks &quot;Launch Game&quot;" style="shape=note;align=left;strokeColor=#808080;fontColor=#666666;" parent="1" vertex="1">
          <mxGeometry x="-976" y="180" width="170" height="66" as="geometry" />
        </mxCell>
        <mxCell id="2nvIdZgUBEcnC0BVwxi8-139" value="" style="ellipse;fillColor=none" parent="1" vertex="1">
          <mxGeometry x="-800.4999999999999" y="137.00429012345683" width="9.999999999999886" height="10" as="geometry" />
        </mxCell>
        <mxCell id="2nvIdZgUBEcnC0BVwxi8-140" style="rounded=0;orthogonalLoop=1;jettySize=auto;html=1;exitX=0;exitY=0.5;exitDx=0;exitDy=0;startArrow=none;startFill=0;endArrow=none;endFill=0;dashed=1;strokeColor=#999999;entryX=0;entryY=0;entryDx=0;entryDy=0;entryPerimeter=0;" parent="1" source="2nvIdZgUBEcnC0BVwxi8-139" target="2nvIdZgUBEcnC0BVwxi8-138" edge="1">
          <mxGeometry relative="1" as="geometry">
            <mxPoint x="-831.3699999999998" y="226.25000000000045" as="sourcePoint" />
            <mxPoint x="-865.0000000000001" y="213.7499999999999" as="targetPoint" />
          </mxGeometry>
        </mxCell>
        <mxCell id="2nvIdZgUBEcnC0BVwxi8-141" value="" style="edgeStyle=none;verticalLabelPosition=top;verticalAlign=bottom;labelPosition=left;align=left;fontSize=10;" parent="1" edge="1">
          <mxGeometry y="180" width="100" height="100" as="geometry">
            <mxPoint x="-568" y="964" as="sourcePoint" />
            <mxPoint x="-168" y="964" as="targetPoint" />
            <mxPoint x="128" y="76" as="offset" />
            <Array as="points">
              <mxPoint x="-780" y="964" />
            </Array>
          </mxGeometry>
        </mxCell>
        <mxCell id="2nvIdZgUBEcnC0BVwxi8-142" value="Alea Frontend API" style="shadow=1;fillColor=#99FFCC;strokeColor=none" parent="1" vertex="1">
          <mxGeometry x="1865" y="65" width="150" height="50" as="geometry" />
        </mxCell>
        <mxCell id="2nvIdZgUBEcnC0BVwxi8-143" value="Play Game" style="rounded=1;whiteSpace=wrap;html=1;labelBackgroundColor=none;fillColor=#00FF00;" parent="1" vertex="1">
          <mxGeometry x="1890" y="1193" width="100" height="60" as="geometry" />
        </mxCell>
        <mxCell id="xnJBq9EGyrnx8lSvGc01-1" value="player-service" style="shadow=1;fillColor=#A2C4C9;strokeColor=none" parent="1" vertex="1">
          <mxGeometry x="435" y="61" width="90" height="50" as="geometry" />
        </mxCell>
        <mxCell id="xnJBq9EGyrnx8lSvGc01-2" value="" style="edgeStyle=elbowEdgeStyle;elbow=horizontal;endArrow=none;dashed=1;" parent="1" source="K9UkdhgUwQVQiiIXOYEs-9" edge="1">
          <mxGeometry x="504.06999999999994" y="324.5" width="100" height="100" as="geometry">
            <mxPoint x="479.40999999999997" y="115" as="sourcePoint" />
            <mxPoint x="480" y="850" as="targetPoint" />
            <Array as="points" />
          </mxGeometry>
        </mxCell>
        <mxCell id="xnJBq9EGyrnx8lSvGc01-3" value="" style="fillColor=#CC4125;strokeColor=#660000" parent="1" vertex="1">
          <mxGeometry x="274" y="240" width="10" height="30" as="geometry" />
        </mxCell>
        <mxCell id="xnJBq9EGyrnx8lSvGc01-4" value="" style="edgeStyle=none;verticalLabelPosition=top;verticalAlign=bottom;endArrow=classic;startArrow=none;startFill=0;endFill=1;" parent="1" edge="1">
          <mxGeometry x="279.91" y="298.4988734567901" width="100" height="100" as="geometry">
            <mxPoint x="-30" y="240" as="sourcePoint" />
            <mxPoint x="270" y="240" as="targetPoint" />
          </mxGeometry>
        </mxCell>
        <mxCell id="xnJBq9EGyrnx8lSvGc01-5" value="[GET] /api/v1/game/{gameId}" style="edgeLabel;html=1;align=center;verticalAlign=middle;resizable=0;points=[];" parent="xnJBq9EGyrnx8lSvGc01-4" vertex="1" connectable="0">
          <mxGeometry relative="1" as="geometry">
            <mxPoint x="-9" y="-8" as="offset" />
          </mxGeometry>
        </mxCell>
        <mxCell id="xnJBq9EGyrnx8lSvGc01-6" value="" style="edgeStyle=elbowEdgeStyle;elbow=vertical;dashed=1;verticalLabelPosition=bottom;verticalAlign=top;" parent="1" edge="1">
          <mxGeometry x="-73.37" y="357.58793209876535" width="100" height="100" as="geometry">
            <mxPoint x="268.37" y="270.5" as="sourcePoint" />
            <mxPoint x="-30" y="270" as="targetPoint" />
            <Array as="points" />
          </mxGeometry>
        </mxCell>
        <mxCell id="xnJBq9EGyrnx8lSvGc01-7" value="GameResponse" style="edgeLabel;html=1;align=center;verticalAlign=middle;resizable=0;points=[];" parent="xnJBq9EGyrnx8lSvGc01-6" vertex="1" connectable="0">
          <mxGeometry relative="1" as="geometry">
            <mxPoint x="-11" y="-8" as="offset" />
          </mxGeometry>
        </mxCell>
        <mxCell id="xnJBq9EGyrnx8lSvGc01-8" value="Validate Game" style="rounded=1;fontStyle=1;fillColor=#ffe6cc;strokeColor=#d79b00;" parent="1" vertex="1">
          <mxGeometry x="-85.01" y="280" width="93" height="20" as="geometry" />
        </mxCell>
        <mxCell id="xnJBq9EGyrnx8lSvGc01-9" value="ingress" style="shadow=1;fillColor=#A2C4C9;strokeColor=none" parent="1" vertex="1">
          <mxGeometry x="-216" y="60" width="101.5" height="50" as="geometry" />
        </mxCell>
        <mxCell id="xnJBq9EGyrnx8lSvGc01-10" value="" style="fillColor=#CC4125;strokeColor=#660000;opacity=60;" parent="1" vertex="1">
          <mxGeometry x="-163.32" y="960" width="10" height="213" as="geometry" />
        </mxCell>
        <mxCell id="xnJBq9EGyrnx8lSvGc01-11" value="[GET] /ui/v1/game/{gameId}/session/{sessionId}/launcher&#xa;   headers: X-Forwarded-For: {userIP},...,..." style="edgeStyle=none;verticalLabelPosition=top;verticalAlign=bottom;labelPosition=left;align=left;" parent="1" edge="1">
          <mxGeometry y="180" width="100" height="100" as="geometry">
            <mxPoint x="-133.8699999999999" y="970" as="sourcePoint" />
            <mxPoint x="270" y="970" as="targetPoint" />
            <mxPoint x="-168" as="offset" />
            <Array as="points">
              <mxPoint x="-149" y="970" />
            </Array>
          </mxGeometry>
        </mxCell>
        <mxCell id="xnJBq9EGyrnx8lSvGc01-13" value="" style="edgeStyle=elbowEdgeStyle;elbow=vertical;dashed=1;verticalLabelPosition=bottom;verticalAlign=top;" parent="1" edge="1">
          <mxGeometry x="-71" y="910.5879320987654" width="100" height="100" as="geometry">
            <mxPoint x="270" y="1153" as="sourcePoint" />
            <mxPoint x="-146" y="1153" as="targetPoint" />
            <Array as="points">
              <mxPoint x="181.5" y="1153.25" />
            </Array>
          </mxGeometry>
        </mxCell>
        <mxCell id="xnJBq9EGyrnx8lSvGc01-14" value="HTML Page" style="edgeLabel;html=1;align=center;verticalAlign=middle;resizable=0;points=[];" parent="xnJBq9EGyrnx8lSvGc01-13" vertex="1" connectable="0">
          <mxGeometry relative="1" as="geometry">
            <mxPoint x="-11" y="-8" as="offset" />
          </mxGeometry>
        </mxCell>
        <mxCell id="xnJBq9EGyrnx8lSvGc01-15" value="" style="fillColor=#CC4125;strokeColor=#660000" parent="1" vertex="1">
          <mxGeometry x="-41.75" y="1000" width="7.5" height="30" as="geometry" />
        </mxCell>
        <mxCell id="xnJBq9EGyrnx8lSvGc01-17" value="" style="edgeStyle=elbowEdgeStyle;elbow=vertical;verticalLabelPosition=bottom;verticalAlign=top;" parent="1" edge="1">
          <mxGeometry x="-39.5" y="761.0879320987654" width="100" height="100" as="geometry">
            <mxPoint x="270" y="1001" as="sourcePoint" />
            <mxPoint x="-30" y="1000" as="targetPoint" />
            <Array as="points" />
          </mxGeometry>
        </mxCell>
        <mxCell id="xnJBq9EGyrnx8lSvGc01-18" value="[GET] /api/v1/game-session/{sessionId}&amp;nbsp;" style="edgeLabel;html=1;align=center;verticalAlign=middle;resizable=0;points=[];" parent="xnJBq9EGyrnx8lSvGc01-17" vertex="1" connectable="0">
          <mxGeometry relative="1" as="geometry">
            <mxPoint x="-11" y="-8" as="offset" />
          </mxGeometry>
        </mxCell>
        <mxCell id="xnJBq9EGyrnx8lSvGc01-19" value="" style="edgeStyle=elbowEdgeStyle;elbow=vertical;dashed=1;verticalLabelPosition=bottom;verticalAlign=top;startArrow=classic;startFill=1;endArrow=none;endFill=0;" parent="1" edge="1">
          <mxGeometry x="-65.37" y="783.5879320987654" width="100" height="100" as="geometry">
            <mxPoint x="270" y="1030" as="sourcePoint" />
            <mxPoint x="-30" y="1030" as="targetPoint" />
            <Array as="points" />
          </mxGeometry>
        </mxCell>
        <mxCell id="xnJBq9EGyrnx8lSvGc01-20" value="GameSessionRestResponse" style="edgeLabel;html=1;align=center;verticalAlign=middle;resizable=0;points=[];" parent="xnJBq9EGyrnx8lSvGc01-19" vertex="1" connectable="0">
          <mxGeometry relative="1" as="geometry">
            <mxPoint x="-11" y="-9" as="offset" />
          </mxGeometry>
        </mxCell>
        <mxCell id="xnJBq9EGyrnx8lSvGc01-21" value="[POST] /ui/v1/game-session/launcher?gameProviderId={gameProviderId}&amp;gamePublisherCode={gamePublisherCode}&#xa;&amp;gameProviderUpdatedAt={gameProviderUpdatedAt}" style="edgeStyle=none;verticalLabelPosition=top;verticalAlign=bottom;labelPosition=left;align=center;" parent="1" edge="1">
          <mxGeometry width="100" height="100" as="geometry">
            <mxPoint x="499.1300000000001" y="1050" as="sourcePoint" />
            <mxPoint x="1130" y="1050" as="targetPoint" />
            <mxPoint x="-95" as="offset" />
            <Array as="points">
              <mxPoint x="290" y="1050" />
            </Array>
          </mxGeometry>
        </mxCell>
        <mxCell id="xnJBq9EGyrnx8lSvGc01-22" value="" style="edgeStyle=orthogonalEdgeStyle;elbow=horizontal;endArrow=none;dashed=1;entryX=0.5;entryY=0;entryDx=0;entryDy=0;" parent="1" target="xnJBq9EGyrnx8lSvGc01-23" edge="1">
          <mxGeometry x="1170.1599999999999" y="320.5" width="100" height="100" as="geometry">
            <mxPoint x="1144" y="112" as="sourcePoint" />
            <mxPoint x="1146" y="922" as="targetPoint" />
            <Array as="points">
              <mxPoint x="1146" y="112" />
            </Array>
          </mxGeometry>
        </mxCell>
        <mxCell id="xnJBq9EGyrnx8lSvGc01-23" value="" style="fillColor=#CC4125;strokeColor=#660000" parent="1" vertex="1">
          <mxGeometry x="1141" y="1052.5" width="10" height="77.5" as="geometry" />
        </mxCell>
        <mxCell id="xnJBq9EGyrnx8lSvGc01-24" value="[GET] https://play.aleaplay.com/api/v1/{gameId}?&amp;casinoSessionId={sessionId}&#xa;&amp;environmentId=[ENVIRONMENT_ID]&amp;gameMode=real" style="edgeStyle=none;verticalLabelPosition=top;verticalAlign=bottom;labelPosition=left;align=center;" parent="1" edge="1">
          <mxGeometry width="100" height="100" as="geometry">
            <mxPoint x="1175.13" y="1080" as="sourcePoint" />
            <mxPoint x="1710" y="1080" as="targetPoint" />
            <mxPoint x="7" as="offset" />
            <Array as="points">
              <mxPoint x="1160" y="1080" />
            </Array>
          </mxGeometry>
        </mxCell>
        <mxCell id="xnJBq9EGyrnx8lSvGc01-25" value="Alea Launch API" style="shadow=1;fillColor=#99CCFF;strokeColor=none" parent="1" vertex="1">
          <mxGeometry x="1658" y="62" width="140" height="50" as="geometry" />
        </mxCell>
        <mxCell id="xnJBq9EGyrnx8lSvGc01-26" value="" style="elbow=horizontal;endArrow=none;dashed=1;exitX=0.5;exitY=1;exitDx=0;exitDy=0;entryX=0.5;entryY=0;entryDx=0;entryDy=0;" parent="1" source="xnJBq9EGyrnx8lSvGc01-25" target="xnJBq9EGyrnx8lSvGc01-27" edge="1">
          <mxGeometry x="1734.1599999999999" y="317.5" width="100" height="100" as="geometry">
            <mxPoint x="1719.5" y="112" as="sourcePoint" />
            <mxPoint x="1732" y="920" as="targetPoint" />
          </mxGeometry>
        </mxCell>
        <mxCell id="xnJBq9EGyrnx8lSvGc01-27" value="" style="fillColor=#CC4125;strokeColor=#660000" parent="1" vertex="1">
          <mxGeometry x="1723" y="1078.75" width="10" height="26.5" as="geometry" />
        </mxCell>
        <mxCell id="xnJBq9EGyrnx8lSvGc01-28" value="" style="edgeStyle=elbowEdgeStyle;elbow=vertical;dashed=1;verticalLabelPosition=bottom;verticalAlign=top;" parent="1" edge="1">
          <mxGeometry x="1120.63" y="862.8379320987654" width="100" height="100" as="geometry">
            <mxPoint x="1710" y="1106" as="sourcePoint" />
            <mxPoint x="1163.13" y="1105.5" as="targetPoint" />
            <Array as="points">
              <mxPoint x="1373.13" y="1105.5" />
            </Array>
          </mxGeometry>
        </mxCell>
        <mxCell id="xnJBq9EGyrnx8lSvGc01-29" value="HTML Code" style="edgeLabel;html=1;align=center;verticalAlign=middle;resizable=0;points=[];" parent="xnJBq9EGyrnx8lSvGc01-28" vertex="1" connectable="0">
          <mxGeometry relative="1" as="geometry">
            <mxPoint x="-11" y="-8" as="offset" />
          </mxGeometry>
        </mxCell>
        <mxCell id="xnJBq9EGyrnx8lSvGc01-30" value="" style="edgeStyle=elbowEdgeStyle;elbow=vertical;dashed=1;verticalLabelPosition=bottom;verticalAlign=top;" parent="1" edge="1">
          <mxGeometry x="450.5000000000001" y="885.3379320987654" width="100" height="100" as="geometry">
            <mxPoint x="1130" y="1130" as="sourcePoint" />
            <mxPoint x="300" y="1130" as="targetPoint" />
            <Array as="points" />
          </mxGeometry>
        </mxCell>
        <mxCell id="xnJBq9EGyrnx8lSvGc01-31" value="HTML Code" style="edgeLabel;html=1;align=center;verticalAlign=middle;resizable=0;points=[];" parent="xnJBq9EGyrnx8lSvGc01-30" vertex="1" connectable="0">
          <mxGeometry relative="1" as="geometry">
            <mxPoint x="-11" y="-8" as="offset" />
          </mxGeometry>
        </mxCell>
        <mxCell id="xnJBq9EGyrnx8lSvGc01-32" value="" style="fillColor=#CC4125;strokeColor=#660000" parent="1" vertex="1">
          <mxGeometry x="-800.5" y="940" width="10" height="253" as="geometry" />
        </mxCell>
        <mxCell id="xnJBq9EGyrnx8lSvGc01-33" value="" style="edgeStyle=elbowEdgeStyle;elbow=vertical;dashed=1;verticalLabelPosition=bottom;verticalAlign=top;entryX=1.766;entryY=0.835;entryDx=0;entryDy=0;entryPerimeter=0;" parent="1" edge="1">
          <mxGeometry x="-451" y="930.5879320987654" width="100" height="100" as="geometry">
            <mxPoint x="-171.5" y="1173" as="sourcePoint" />
            <mxPoint x="-782.8400000000001" y="1173.5" as="targetPoint" />
            <Array as="points">
              <mxPoint x="-198.5" y="1173.25" />
            </Array>
          </mxGeometry>
        </mxCell>
        <mxCell id="xnJBq9EGyrnx8lSvGc01-34" value="HTML Page" style="edgeLabel;html=1;align=center;verticalAlign=middle;resizable=0;points=[];" parent="xnJBq9EGyrnx8lSvGc01-33" vertex="1" connectable="0">
          <mxGeometry relative="1" as="geometry">
            <mxPoint x="-133" y="-10" as="offset" />
          </mxGeometry>
        </mxCell>
        <mxCell id="xnJBq9EGyrnx8lSvGc01-35" value="" style="edgeStyle=elbowEdgeStyle;elbow=vertical;dashed=1;verticalLabelPosition=bottom;verticalAlign=top;endArrow=none;endFill=0;startArrow=classic;startFill=1;" parent="1" edge="1">
          <mxGeometry x="-665" y="986.1379320987653" width="100" height="100" as="geometry">
            <mxPoint x="1870" y="1229" as="sourcePoint" />
            <mxPoint x="-780" y="1228.55" as="targetPoint" />
            <Array as="points">
              <mxPoint x="-412.5" y="1228.8" />
            </Array>
          </mxGeometry>
        </mxCell>
        <mxCell id="xnJBq9EGyrnx8lSvGc01-36" value="Play Game" style="edgeLabel;html=1;align=center;verticalAlign=middle;resizable=0;points=[];" parent="xnJBq9EGyrnx8lSvGc01-35" vertex="1" connectable="0">
          <mxGeometry relative="1" as="geometry">
            <mxPoint x="-11" y="-8" as="offset" />
          </mxGeometry>
        </mxCell>
        <mxCell id="8-_fc04icVjw9s10kmAn-1" value="Required for REAL mode ONLY." style="shape=note;align=left;strokeColor=#808080;fontColor=#666666;" parent="1" vertex="1">
          <mxGeometry x="-20" y="1038.75" width="196" height="21.25" as="geometry" />
        </mxCell>
        <mxCell id="8-_fc04icVjw9s10kmAn-3" style="rounded=0;orthogonalLoop=1;jettySize=auto;html=1;exitX=0;exitY=0.5;exitDx=0;exitDy=0;startArrow=none;startFill=0;endArrow=none;endFill=0;dashed=1;strokeColor=#999999;entryX=0;entryY=0;entryDx=185.375;entryDy=10.625;entryPerimeter=0;" parent="1" source="8-_fc04icVjw9s10kmAn-4" target="8-_fc04icVjw9s10kmAn-1" edge="1">
          <mxGeometry relative="1" as="geometry">
            <mxPoint x="473" y="1012.5042901234568" as="sourcePoint" />
            <mxPoint x="426" y="1040" as="targetPoint" />
          </mxGeometry>
        </mxCell>
        <mxCell id="aRQhZA1QGM0THKEGcPk_-1" value="&lt;div&gt;-&amp;nbsp;&lt;span style=&quot;background-color: rgb(204, 255, 204);&quot;&gt;REAL&lt;/span&gt;:&amp;nbsp; &amp;nbsp;https://{hostname}/&lt;span style=&quot;background-color: rgb(204, 255, 204);&quot;&gt;ui/v1/game/{gameId}/session/{sessionId}/launcher&lt;/span&gt;&lt;/div&gt;&lt;div&gt;-&amp;nbsp;&lt;span style=&quot;background-color: rgb(255, 255, 204);&quot;&gt;DEMO&lt;/span&gt;: https://{hostname}/&lt;span style=&quot;background-color: rgb(255, 255, 204);&quot;&gt;ui/v1/game/{gameId}/demo&lt;/span&gt;&lt;/div&gt;" style="edgeLabel;html=1;align=left;verticalAlign=middle;resizable=0;points=[];fontStyle=0;fontSize=10;" parent="1" vertex="1" connectable="0">
          <mxGeometry x="-779.9989655172419" y="989.9989655172415" as="geometry" />
        </mxCell>
        <mxCell id="aRQhZA1QGM0THKEGcPk_-2" value="&lt;span style=&quot;color: rgb(0, 0, 0); font-family: Helvetica; font-size: 10px; font-style: normal; font-variant-ligatures: normal; font-variant-caps: normal; font-weight: 400; letter-spacing: normal; orphans: 2; text-align: left; text-indent: 0px; text-transform: none; widows: 2; word-spacing: 0px; -webkit-text-stroke-width: 0px; background-color: rgb(255, 255, 255); text-decoration-thickness: initial; text-decoration-style: initial; text-decoration-color: initial; float: none; display: inline !important;&quot;&gt;headers: X-Forwarded-For: {userIP},...,...&lt;/span&gt;" style="text;whiteSpace=wrap;html=1;" parent="1" vertex="1">
          <mxGeometry x="-761" y="1001" width="210" height="20" as="geometry" />
        </mxCell>
        <mxCell id="b-5YkS1wpCGtqvK3t734-2" value="" style="edgeStyle=elbowEdgeStyle;elbow=horizontal;endArrow=none;dashed=1" parent="1" target="b-5YkS1wpCGtqvK3t734-1" edge="1">
          <mxGeometry x="-133.75000000000003" y="311" width="100" height="100" as="geometry">
            <mxPoint x="-158.74999999999955" y="111" as="sourcePoint" />
            <mxPoint x="-159" y="580" as="targetPoint" />
          </mxGeometry>
        </mxCell>
        <mxCell id="b-5YkS1wpCGtqvK3t734-4" value="" style="edgeStyle=none;verticalLabelPosition=top;verticalAlign=bottom;endArrow=classic;startArrow=none;startFill=0;endFill=1;" parent="1" edge="1">
          <mxGeometry x="44.910000000000025" y="62.49887345679011" width="100" height="100" as="geometry">
            <mxPoint x="-143" y="152" as="sourcePoint" />
            <mxPoint x="-50" y="152" as="targetPoint" />
          </mxGeometry>
        </mxCell>
        <mxCell id="b-5YkS1wpCGtqvK3t734-6" value="" style="edgeStyle=elbowEdgeStyle;elbow=vertical;dashed=1;verticalLabelPosition=bottom;verticalAlign=top;" parent="1" edge="1">
          <mxGeometry x="-188.37" y="461.58793209876535" width="100" height="100" as="geometry">
            <mxPoint x="-52.13" y="630" as="sourcePoint" />
            <mxPoint x="-146.9999999999999" y="630.25" as="targetPoint" />
            <Array as="points" />
          </mxGeometry>
        </mxCell>
        <mxCell id="b-5YkS1wpCGtqvK3t734-7" value="GraphQL Response" style="edgeLabel;html=1;align=center;verticalAlign=middle;resizable=0;points=[];" parent="b-5YkS1wpCGtqvK3t734-6" vertex="1" connectable="0">
          <mxGeometry relative="1" as="geometry">
            <mxPoint x="1" y="-12" as="offset" />
          </mxGeometry>
        </mxCell>
        <mxCell id="b-5YkS1wpCGtqvK3t734-8" value="" style="fillColor=#CC4125;strokeColor=#660000" parent="1" vertex="1">
          <mxGeometry x="-800.5" y="660" width="10" height="130" as="geometry" />
        </mxCell>
        <mxCell id="b-5YkS1wpCGtqvK3t734-11" value="" style="edgeStyle=none;verticalLabelPosition=top;verticalAlign=bottom;labelPosition=left;align=left;fontSize=10;" parent="1" edge="1">
          <mxGeometry x="-10.5" y="-4" width="100" height="100" as="geometry">
            <mxPoint x="-578.5" y="669.9999999999998" as="sourcePoint" />
            <mxPoint x="-178.5" y="669.9999999999998" as="targetPoint" />
            <mxPoint x="128" y="76" as="offset" />
            <Array as="points">
              <mxPoint x="-790.5" y="670" />
            </Array>
          </mxGeometry>
        </mxCell>
        <mxCell id="b-5YkS1wpCGtqvK3t734-10" value="" style="fillColor=#CC4125;strokeColor=#660000;opacity=60;" parent="1" vertex="1">
          <mxGeometry x="-163.31" y="670" width="10" height="100" as="geometry" />
        </mxCell>
        <mxCell id="b-5YkS1wpCGtqvK3t734-12" value="" style="edgeStyle=elbowEdgeStyle;elbow=horizontal;endArrow=none;dashed=1;startArrow=none;exitX=0.5;exitY=1;exitDx=0;exitDy=0;entryX=0.5;entryY=0;entryDx=0;entryDy=0;" parent="1" source="b-5YkS1wpCGtqvK3t734-10" target="xnJBq9EGyrnx8lSvGc01-10" edge="1">
          <mxGeometry x="-133.66000000000003" y="461" width="100" height="100" as="geometry">
            <mxPoint x="-158" y="700" as="sourcePoint" />
            <mxPoint x="-158" y="760" as="targetPoint" />
            <Array as="points">
              <mxPoint x="-158" y="700" />
            </Array>
          </mxGeometry>
        </mxCell>
        <mxCell id="b-5YkS1wpCGtqvK3t734-13" value="&lt;div&gt;-&amp;nbsp;&lt;span style=&quot;background-color: rgb(204, 255, 204);&quot;&gt;REAL&amp;nbsp;&lt;/span&gt;in&amp;nbsp;&lt;span style=&quot;background-color: rgb(255, 204, 255);&quot;&gt;IFRAME&lt;/span&gt;: https://{hostname}&lt;span style=&quot;background-color: rgb(255, 204, 255);&quot;&gt;/ui/v1/iframe&lt;/span&gt;&lt;span style=&quot;background-color: rgb(255, 204, 255); color: light-dark(rgb(0, 0, 0), rgb(255, 255, 255));&quot;&gt;/launcher.html&lt;/span&gt;&lt;span style=&quot;background-color: light-dark(#ffffff, var(--ge-dark-color, #121212)); color: light-dark(rgb(0, 0, 0), rgb(255, 255, 255));&quot;&gt;?gameSessionId={sessionId}&amp;amp;token={authToken}&amp;amp;&lt;/span&gt;&lt;/div&gt;&lt;div&gt;&lt;span style=&quot;white-space-collapse: preserve;&quot;&gt;&#x9;&lt;/span&gt;launchUrl=https://{hostname}&lt;span style=&quot;background-color: rgb(204, 255, 204);&quot;&gt;/ui/v1/game/{gameId}/session/{sessionId}/launcher&lt;/span&gt;&lt;/div&gt;&lt;div&gt;-&amp;nbsp;&lt;span style=&quot;background-color: rgb(255, 255, 204);&quot;&gt;DEMO&amp;nbsp;&lt;/span&gt;in&amp;nbsp;&lt;span style=&quot;background-color: rgb(255, 204, 255);&quot;&gt;IFRAME&lt;/span&gt;: https://{hostname}&lt;span style=&quot;background-color: rgb(255, 204, 255);&quot;&gt;/ui/v1/iframe&lt;/span&gt;?gameLaunchUrl=https://{hostname}/&lt;span style=&quot;background-color: rgb(255, 255, 204);&quot;&gt;ui/v1/game/{gameId}/demo&lt;/span&gt;&lt;/div&gt;" style="edgeLabel;html=1;align=left;verticalAlign=middle;resizable=0;points=[];fontStyle=0;fontSize=10;" parent="1" vertex="1" connectable="0">
          <mxGeometry x="-787.9989655172419" y="690.9989655172415" as="geometry" />
        </mxCell>
        <mxCell id="b-5YkS1wpCGtqvK3t734-20" value="IFRAME (S3 Bucket)" style="shadow=1;fillColor=#FFE6CC;strokeColor=none;" parent="1" vertex="1">
          <mxGeometry x="706" y="61" width="137.5" height="50" as="geometry" />
        </mxCell>
        <mxCell id="b-5YkS1wpCGtqvK3t734-21" value="" style="edgeStyle=elbowEdgeStyle;elbow=horizontal;endArrow=none;dashed=1;entryX=0.5;entryY=0;entryDx=0;entryDy=0;" parent="1" target="b-5YkS1wpCGtqvK3t734-24" edge="1">
          <mxGeometry x="795.91" y="341.5" width="100" height="100" as="geometry">
            <mxPoint x="772" y="120" as="sourcePoint" />
            <mxPoint x="771.84" y="607" as="targetPoint" />
          </mxGeometry>
        </mxCell>
        <mxCell id="b-5YkS1wpCGtqvK3t734-22" value="&lt;div&gt;-&amp;nbsp;&lt;span style=&quot;background-color: rgb(204, 255, 204);&quot;&gt;REAL&amp;nbsp;&lt;/span&gt;in&amp;nbsp;&lt;span style=&quot;background-color: rgb(255, 230, 204);&quot;&gt;S3 IFRAME&lt;/span&gt;: &lt;span style=&quot;background-color: rgb(255, 230, 204);&quot;&gt;http://stage-casino-betterix.s3-website.eu-central-1.amazonaws.com/iframe/launcher.html&lt;/span&gt;&lt;/div&gt;&lt;div&gt;&lt;span style=&quot;background-color: light-dark(#ffffff, var(--ge-dark-color, #121212)); color: light-dark(rgb(0, 0, 0), rgb(255, 255, 255));&quot;&gt;&lt;span style=&quot;white-space: pre;&quot;&gt;&#x9;&lt;/span&gt;&lt;span style=&quot;white-space: pre;&quot;&gt;&#x9;&lt;/span&gt;?gameSessionId={sessionId}&amp;amp;token={authToken}&amp;amp;&lt;/span&gt;&lt;span style=&quot;background-color: light-dark(#ffffff, var(--ge-dark-color, #121212)); color: light-dark(rgb(0, 0, 0), rgb(255, 255, 255));&quot;&gt;launchUrl=https://{hostname}&lt;/span&gt;&lt;span style=&quot;color: light-dark(rgb(0, 0, 0), rgb(255, 255, 255)); background-color: rgb(204, 255, 204);&quot;&gt;/ui/v1/game/{gameId}/session/{sessionId}/launcher&lt;/span&gt;&lt;/div&gt;" style="edgeLabel;html=1;align=left;verticalAlign=middle;resizable=0;points=[];fontStyle=0;fontSize=10;" parent="1" vertex="1" connectable="0">
          <mxGeometry x="-146.9989655172419" y="680.4989655172415" as="geometry" />
        </mxCell>
        <mxCell id="b-5YkS1wpCGtqvK3t734-23" value="" style="edgeStyle=none;verticalLabelPosition=top;verticalAlign=bottom;labelPosition=left;align=left;fontSize=10;" parent="1" edge="1">
          <mxGeometry x="632" y="29.909999999999997" width="100" height="100" as="geometry">
            <mxPoint x="-147.69000000000005" y="704" as="sourcePoint" />
            <mxPoint x="763" y="700.5" as="targetPoint" />
            <mxPoint x="128" y="76" as="offset" />
            <Array as="points">
              <mxPoint x="-148" y="703.91" />
            </Array>
          </mxGeometry>
        </mxCell>
        <mxCell id="b-5YkS1wpCGtqvK3t734-24" value="" style="fillColor=#CC4125;strokeColor=#660000" parent="1" vertex="1">
          <mxGeometry x="766.75" y="698.5" width="10" height="41.5" as="geometry" />
        </mxCell>
        <mxCell id="b-5YkS1wpCGtqvK3t734-25" value="" style="edgeStyle=elbowEdgeStyle;elbow=vertical;dashed=1;verticalLabelPosition=bottom;verticalAlign=top;" parent="1" edge="1">
          <mxGeometry x="-189.4999999999999" y="606.1679320987653" width="100" height="100" as="geometry">
            <mxPoint x="760" y="741" as="sourcePoint" />
            <mxPoint x="-147" y="740.8299999999999" as="targetPoint" />
            <Array as="points" />
          </mxGeometry>
        </mxCell>
        <mxCell id="b-5YkS1wpCGtqvK3t734-26" value="HTML Code:&amp;nbsp; IFRAME + GAME_LAUNCH_URL" style="edgeLabel;html=1;align=center;verticalAlign=middle;resizable=0;points=[];" parent="b-5YkS1wpCGtqvK3t734-25" vertex="1" connectable="0">
          <mxGeometry relative="1" as="geometry">
            <mxPoint x="-11" y="-8" as="offset" />
          </mxGeometry>
        </mxCell>
        <mxCell id="b-5YkS1wpCGtqvK3t734-28" value="" style="edgeStyle=elbowEdgeStyle;elbow=vertical;dashed=1;verticalLabelPosition=bottom;verticalAlign=top;" parent="1" edge="1">
          <mxGeometry x="-956.47" y="637.5879320987654" width="100" height="100" as="geometry">
            <mxPoint x="-170" y="770" as="sourcePoint" />
            <mxPoint x="-780" y="770" as="targetPoint" />
            <Array as="points">
              <mxPoint x="-703.97" y="770.25" />
            </Array>
          </mxGeometry>
        </mxCell>
        <mxCell id="b-5YkS1wpCGtqvK3t734-29" value="HTML Code:&amp;nbsp; IFRAME + GAME_LAUNCH_URL" style="edgeLabel;html=1;align=center;verticalAlign=middle;resizable=0;points=[];" parent="b-5YkS1wpCGtqvK3t734-28" vertex="1" connectable="0">
          <mxGeometry relative="1" as="geometry">
            <mxPoint x="-11" y="-8" as="offset" />
          </mxGeometry>
        </mxCell>
        <mxCell id="b-5YkS1wpCGtqvK3t734-30" value="" style="ellipse;fillColor=#cce5ff;strokeColor=#36393d;" parent="1" vertex="1">
          <mxGeometry x="-806" y="1216" width="20" height="20" as="geometry" />
        </mxCell>
        <mxCell id="b-5YkS1wpCGtqvK3t734-33" value="Browser calls IFRAME" style="shape=note;align=left;strokeColor=#808080;fontColor=#666666;size=10;" parent="1" vertex="1">
          <mxGeometry x="-976" y="675.5" width="170" height="34.5" as="geometry" />
        </mxCell>
        <mxCell id="b-5YkS1wpCGtqvK3t734-34" value="" style="ellipse;fillColor=none" parent="1" vertex="1">
          <mxGeometry x="-800.9999999999999" y="664.9942901234568" width="9.999999999999886" height="10" as="geometry" />
        </mxCell>
        <mxCell id="b-5YkS1wpCGtqvK3t734-35" style="rounded=0;orthogonalLoop=1;jettySize=auto;html=1;exitX=0;exitY=0.5;exitDx=0;exitDy=0;startArrow=none;startFill=0;endArrow=none;endFill=0;dashed=1;strokeColor=#999999;entryX=0;entryY=0;entryDx=165;entryDy=5;entryPerimeter=0;" parent="1" target="b-5YkS1wpCGtqvK3t734-33" edge="1">
          <mxGeometry relative="1" as="geometry">
            <mxPoint x="-803.25" y="672.0042901234569" as="sourcePoint" />
            <mxPoint x="-820" y="680" as="targetPoint" />
          </mxGeometry>
        </mxCell>
        <mxCell id="b-5YkS1wpCGtqvK3t734-36" value="Browser (IFRAME)&#xa;calls &quot;internal&quot; gameLaunchUrl" style="shape=note;align=left;strokeColor=#808080;fontColor=#666666;size=10;" parent="1" vertex="1">
          <mxGeometry x="-980" y="951.5" width="170" height="54.5" as="geometry" />
        </mxCell>
        <mxCell id="b-5YkS1wpCGtqvK3t734-37" value="" style="ellipse;fillColor=none" parent="1" vertex="1">
          <mxGeometry x="-800.4999999999999" y="941.5042901234568" width="9.999999999999886" height="10" as="geometry" />
        </mxCell>
        <mxCell id="b-5YkS1wpCGtqvK3t734-38" style="rounded=0;orthogonalLoop=1;jettySize=auto;html=1;exitX=0;exitY=0.5;exitDx=0;exitDy=0;startArrow=none;startFill=0;endArrow=none;endFill=0;dashed=1;strokeColor=#999999;entryX=0;entryY=0;entryDx=165;entryDy=5;entryPerimeter=0;" parent="1" target="b-5YkS1wpCGtqvK3t734-36" edge="1">
          <mxGeometry relative="1" as="geometry">
            <mxPoint x="-801" y="948.5042901234569" as="sourcePoint" />
            <mxPoint x="-817.7499999999998" y="956.5" as="targetPoint" />
          </mxGeometry>
        </mxCell>
        <mxCell id="GougiE5AzOG2RokE-Mjc-1" value="Browser loads Game in HTML Page&#xa;   " style="shape=note;align=left;strokeColor=#808080;fontColor=#666666;size=10;" parent="1" vertex="1">
          <mxGeometry x="-1020" y="1230" width="200" height="36.25" as="geometry" />
        </mxCell>
        <mxCell id="GougiE5AzOG2RokE-Mjc-2" style="rounded=0;orthogonalLoop=1;jettySize=auto;html=1;exitX=0;exitY=0.5;exitDx=0;exitDy=0;startArrow=none;startFill=0;endArrow=none;endFill=0;dashed=1;strokeColor=#999999;" parent="1" edge="1">
          <mxGeometry relative="1" as="geometry">
            <mxPoint x="-806" y="1228.004290123457" as="sourcePoint" />
            <mxPoint x="-822.75" y="1236" as="targetPoint" />
          </mxGeometry>
        </mxCell>
        <mxCell id="hlgV4XSnpSdy0OollXZG-2" value="" style="edgeStyle=elbowEdgeStyle;elbow=horizontal;endArrow=none;dashed=1;entryX=0.5;entryY=0;entryDx=0;entryDy=0;" parent="1" target="2nvIdZgUBEcnC0BVwxi8-118" edge="1">
          <mxGeometry x="304.76" y="313" width="100" height="100" as="geometry">
            <mxPoint x="191.25" y="120" as="sourcePoint" />
            <mxPoint x="190" y="160" as="targetPoint" />
          </mxGeometry>
        </mxCell>
        <mxCell id="xnJBq9EGyrnx8lSvGc01-12" value="" style="fillColor=#CC4125;strokeColor=#660000" parent="1" vertex="1">
          <mxGeometry x="274" y="970" width="15" height="183" as="geometry" />
        </mxCell>
        <mxCell id="8-_fc04icVjw9s10kmAn-4" value="" style="ellipse;fillColor=none" parent="1" vertex="1">
          <mxGeometry x="274" y="1005" width="15" height="16" as="geometry" />
        </mxCell>
        <mxCell id="DnqwAbwDMZqJNTopiSwU-3" value="" style="edgeStyle=none;verticalLabelPosition=top;verticalAlign=bottom;endArrow=classic;startArrow=none;startFill=0;endFill=1;" parent="1" edge="1">
          <mxGeometry x="283.04" y="167.4988734567901" width="100" height="100" as="geometry">
            <mxPoint x="-30" y="470" as="sourcePoint" />
            <mxPoint x="470" y="470" as="targetPoint" />
          </mxGeometry>
        </mxCell>
        <mxCell id="DnqwAbwDMZqJNTopiSwU-4" value="[GET] /api/v1/brand/{brandId}/player/{playerId}/auth-token" style="edgeLabel;html=1;align=center;verticalAlign=middle;resizable=0;points=[];" parent="DnqwAbwDMZqJNTopiSwU-3" vertex="1" connectable="0">
          <mxGeometry relative="1" as="geometry">
            <mxPoint x="3" y="-10" as="offset" />
          </mxGeometry>
        </mxCell>
        <mxCell id="DnqwAbwDMZqJNTopiSwU-5" value="" style="edgeStyle=elbowEdgeStyle;elbow=vertical;dashed=1;verticalLabelPosition=bottom;verticalAlign=top;" parent="1" edge="1">
          <mxGeometry x="-72.37" y="223.99793209876535" width="100" height="100" as="geometry">
            <mxPoint x="470" y="500" as="sourcePoint" />
            <mxPoint x="-30" y="500" as="targetPoint" />
            <Array as="points">
              <mxPoint x="273.87" y="500" />
            </Array>
          </mxGeometry>
        </mxCell>
        <mxCell id="DnqwAbwDMZqJNTopiSwU-6" value="PlayerAuthTokenResponse" style="edgeLabel;html=1;align=center;verticalAlign=middle;resizable=0;points=[];" parent="DnqwAbwDMZqJNTopiSwU-5" vertex="1" connectable="0">
          <mxGeometry relative="1" as="geometry">
            <mxPoint x="4" y="-8" as="offset" />
          </mxGeometry>
        </mxCell>
        <mxCell id="K9UkdhgUwQVQiiIXOYEs-2" value="" style="edgeStyle=elbowEdgeStyle;elbow=horizontal;endArrow=none;dashed=1;startArrow=none;entryX=0.5;entryY=0;entryDx=0;entryDy=0;" parent="1" source="b-5YkS1wpCGtqvK3t734-8" target="K9UkdhgUwQVQiiIXOYEs-1" edge="1">
          <mxGeometry x="-768.6" y="319" width="100" height="100" as="geometry">
            <mxPoint x="-796" y="790" as="sourcePoint" />
            <mxPoint x="-796" y="1216" as="targetPoint" />
          </mxGeometry>
        </mxCell>
        <mxCell id="K9UkdhgUwQVQiiIXOYEs-1" value="" style="fillColor=#CC4125;strokeColor=#660000" parent="1" vertex="1">
          <mxGeometry x="-801" y="810" width="10" height="110" as="geometry" />
        </mxCell>
        <mxCell id="K9UkdhgUwQVQiiIXOYEs-3" value="" style="ellipse;fillColor=none" parent="1" vertex="1">
          <mxGeometry x="-800.9999999999999" y="820.0042901234568" width="9.999999999999886" height="10" as="geometry" />
        </mxCell>
        <mxCell id="K9UkdhgUwQVQiiIXOYEs-4" value="Browser (IFRAME)&#xa;calls player-service for login &#xa;by token" style="shape=note;align=left;strokeColor=#808080;fontColor=#666666;size=10;" parent="1" vertex="1">
          <mxGeometry x="-980" y="830" width="170" height="50" as="geometry" />
        </mxCell>
        <mxCell id="K9UkdhgUwQVQiiIXOYEs-5" style="rounded=0;orthogonalLoop=1;jettySize=auto;html=1;startArrow=none;startFill=0;endArrow=none;endFill=0;dashed=1;strokeColor=#999999;entryX=0;entryY=0.5;entryDx=0;entryDy=0;exitX=0;exitY=0;exitDx=165;exitDy=5;exitPerimeter=0;" parent="1" source="K9UkdhgUwQVQiiIXOYEs-4" target="K9UkdhgUwQVQiiIXOYEs-3" edge="1">
          <mxGeometry relative="1" as="geometry">
            <mxPoint x="-880" y="810" as="sourcePoint" />
            <mxPoint x="-861" y="761" as="targetPoint" />
          </mxGeometry>
        </mxCell>
        <mxCell id="K9UkdhgUwQVQiiIXOYEs-6" value="" style="edgeStyle=none;verticalLabelPosition=top;verticalAlign=bottom;labelPosition=left;align=left;fontSize=10;" parent="1" edge="1">
          <mxGeometry x="-10.5" y="-4" width="100" height="100" as="geometry">
            <mxPoint x="-578.5" y="819.9999999999998" as="sourcePoint" />
            <mxPoint x="470" y="820.3" as="targetPoint" />
            <mxPoint x="128" y="76" as="offset" />
            <Array as="points">
              <mxPoint x="-790.5" y="820" />
            </Array>
          </mxGeometry>
        </mxCell>
        <mxCell id="K9UkdhgUwQVQiiIXOYEs-7" value="" style="edgeStyle=elbowEdgeStyle;elbow=vertical;dashed=1;verticalLabelPosition=bottom;verticalAlign=top;" parent="1" edge="1">
          <mxGeometry x="-956.47" y="637.5879320987654" width="100" height="100" as="geometry">
            <mxPoint x="470" y="910" as="sourcePoint" />
            <mxPoint x="-788" y="910" as="targetPoint" />
            <Array as="points">
              <mxPoint x="-711.97" y="910.25" />
            </Array>
          </mxGeometry>
        </mxCell>
        <mxCell id="K9UkdhgUwQVQiiIXOYEs-8" value="Boolean" style="edgeLabel;html=1;align=center;verticalAlign=middle;resizable=0;points=[];" parent="K9UkdhgUwQVQiiIXOYEs-7" vertex="1" connectable="0">
          <mxGeometry relative="1" as="geometry">
            <mxPoint x="-11" y="-8" as="offset" />
          </mxGeometry>
        </mxCell>
        <mxCell id="K9UkdhgUwQVQiiIXOYEs-10" value="" style="edgeStyle=elbowEdgeStyle;elbow=horizontal;endArrow=none;dashed=1;entryX=0.25;entryY=1;entryDx=0;entryDy=0;" parent="1" target="K9UkdhgUwQVQiiIXOYEs-9" edge="1">
          <mxGeometry x="504.06999999999994" y="324.5" width="100" height="100" as="geometry">
            <mxPoint x="479.40999999999997" y="115" as="sourcePoint" />
            <mxPoint x="479" y="810" as="targetPoint" />
            <Array as="points">
              <mxPoint x="479" y="510" />
            </Array>
          </mxGeometry>
        </mxCell>
        <mxCell id="K9UkdhgUwQVQiiIXOYEs-9" value="" style="fillColor=#CC4125;strokeColor=#660000" parent="1" vertex="1">
          <mxGeometry x="475" y="820" width="10" height="90" as="geometry" />
        </mxCell>
        <mxCell id="2nvIdZgUBEcnC0BVwxi8-105" value="" style="fillColor=#CC4125;strokeColor=#660000" parent="1" vertex="1">
          <mxGeometry x="475" y="380" width="10" height="30" as="geometry" />
        </mxCell>
        <mxCell id="DnqwAbwDMZqJNTopiSwU-2" value="" style="fillColor=#CC4125;strokeColor=#660000" parent="1" vertex="1">
          <mxGeometry x="475" y="470" width="10" height="30" as="geometry" />
        </mxCell>
        <mxCell id="K9UkdhgUwQVQiiIXOYEs-11" value="[GRAPHQL] site_loginPlayerByToken" style="edgeLabel;html=1;align=center;verticalAlign=middle;resizable=0;points=[];" parent="1" vertex="1" connectable="0">
          <mxGeometry x="-163.31" y="810" as="geometry" />
        </mxCell>
        <mxCell id="cRXYZAkLskjJOCxfOdqw-1" value="" style="ellipse;fillColor=none" vertex="1" parent="1">
          <mxGeometry x="-42.499999999999886" y="480.0042901234568" width="9.999999999999886" height="10" as="geometry" />
        </mxCell>
        <mxCell id="cRXYZAkLskjJOCxfOdqw-3" value="Get player auth token" style="shape=note;align=left;strokeColor=#808080;fontColor=#666666;verticalAlign=middle;" vertex="1" parent="1">
          <mxGeometry x="-226.63" y="470" width="150" height="50" as="geometry" />
        </mxCell>
        <mxCell id="cRXYZAkLskjJOCxfOdqw-4" style="rounded=0;orthogonalLoop=1;jettySize=auto;html=1;exitX=0;exitY=0.5;exitDx=0;exitDy=0;startArrow=none;startFill=0;endArrow=none;endFill=0;dashed=1;strokeColor=#999999;entryX=0;entryY=0;entryDx=150;entryDy=30;entryPerimeter=0;" edge="1" parent="1" source="cRXYZAkLskjJOCxfOdqw-1" target="cRXYZAkLskjJOCxfOdqw-3">
          <mxGeometry relative="1" as="geometry">
            <mxPoint x="-51.61000000000013" y="483.68000000000006" as="sourcePoint" />
            <mxPoint x="-84.5" y="480" as="targetPoint" />
          </mxGeometry>
        </mxCell>
      </root>
    </mxGraphModel>
  </diagram>
</mxfile>
